<?xml version="1.0" encoding="UTF-8"?>
<svg width="55px" height="56px" viewBox="0 0 55 56" version="1.1" xmlns="http://www.w3.org/2000/svg" xmlns:xlink="http://www.w3.org/1999/xlink">
    <!-- Generator: Sketch 55.2 (78181) - https://sketchapp.com -->
    <title>Telly Btn</title>
    <desc>Created with Sketch.</desc>
    <defs>
        <polygon id="path-1" points="0 0.00034 24.2446 0.00034 24.2446 8.42646805 0 8.42646805"></polygon>
    </defs>
    <g id="Page-1" stroke="none" stroke-width="1" fill="none" fill-rule="evenodd">
        <g id="Application-" transform="translate(-747.000000, -728.000000)">
            <g id="Telly-Btn" transform="translate(747.500000, 729.000000)">
                <g id="Telephone" transform="translate(15.000000, 23.000000)">
                    <mask id="mask-2" fill="white">
                        <use xlink:href="#path-1"></use>
                    </mask>
                    <g id="Clip-2"></g>
                    <path d="M12.1226,0.00034 C3.9316,0.00034 -0.0004,5.24234 -0.0004,5.24234 C2.6206,9.66534 4.3416,8.19034 4.3416,8.19034 L6.7826,6.35934 C7.3086,5.96534 7.6176,5.34734 7.6176,4.68934 L7.6176,2.04734 L12.1226,2.04734 L16.6276,2.04734 L16.6276,4.68934 C16.6276,5.34734 16.9356,5.96534 17.4616,6.35934 L19.9026,8.19034 C19.9026,8.19034 21.6236,9.66534 24.2446,5.24234 C24.2446,5.24234 20.3126,0.00034 12.1226,0.00034" id="Fill-1" fill="#EE353E" mask="url(#mask-2)"></path>
                </g>
                <circle id="Oval-Copy" stroke="#E0E1E1" cx="27" cy="27" r="27"></circle>
            </g>
        </g>
    </g>
</svg>