<?xml version="1.0" encoding="UTF-8"?>
<svg width="56px" height="56px" viewBox="0 0 56 56" version="1.1" xmlns="http://www.w3.org/2000/svg" xmlns:xlink="http://www.w3.org/1999/xlink">
    <!-- Generator: Sketch 55.2 (78181) - https://sketchapp.com -->
    <title>Mic Btn</title>
    <desc>Created with Sketch.</desc>
    <defs>
        <polygon id="path-1" points="0.4241 0.821 7.4441 0.821 7.4441 11.7316 0.4241 11.7316"></polygon>
        <polygon id="path-3" points="0.0004 0.499 17.444 0.499 17.444 18 0.0004 18"></polygon>
    </defs>
    <g id="Page-1" stroke="none" stroke-width="1" fill="none" fill-rule="evenodd">
        <g id="Application-" transform="translate(-675.000000, -728.000000)">
            <g id="Mic-Btn" transform="translate(676.000000, 729.000000)">
                <g id="Mute-Mic" transform="translate(18.000000, 17.000000)">
                    <g id="Group-3" transform="translate(5.000000, 0.179100)">
                        <mask id="mask-2" fill="white">
                            <use xlink:href="#path-1"></use>
                        </mask>
                        <g id="Clip-2"></g>
                        <path d="M6.5921,11.7316 C7.1201,11.1196 7.4441,10.3266 7.4441,9.4546 L7.4441,4.3316 C7.4441,2.3926 5.8721,0.8206 3.9341,0.8206 C1.9951,0.8206 0.4241,2.3926 0.4241,4.3316 L0.4241,5.5626 L6.5921,11.7316 Z" id="Fill-1" fill="#384852" mask="url(#mask-2)"></path>
                    </g>
                    <path d="M14.2279,14.5455 C15.2729,13.3365 15.9139,11.7685 15.9139,10.0475 L14.4139,10.0475 C14.4139,11.3545 13.9399,12.5475 13.1649,13.4825 L14.2279,14.5455 Z" id="Fill-4" fill="#384852"></path>
                    <g id="Group-8" transform="translate(0.000000, 2.179100)">
                        <mask id="mask-4" fill="white">
                            <use xlink:href="#path-3"></use>
                        </mask>
                        <g id="Clip-7"></g>
                        <path d="M17.3304,16.883 L0.9464,0.499 L0.0004,1.446 L5.4244,6.87 L5.4244,7.454 C5.4244,9.393 6.9954,10.964 8.9344,10.964 C9.1154,10.964 9.2904,10.938 9.4644,10.91 L11.3094,12.756 C10.6084,13.089 9.8284,13.28 9.0024,13.28 C6.0184,13.28 3.5914,10.853 3.5914,7.868 L2.0914,7.868 C2.0914,11.426 4.7934,14.362 8.2524,14.737 L8.2524,18 L9.7524,18 L9.7524,14.737 C10.7154,14.633 11.6174,14.327 12.4214,13.867 L16.3844,17.83 L17.4444,16.77 L17.4434,16.769 L17.3304,16.883 Z" id="Fill-6" fill="#384852" mask="url(#mask-4)"></path>
                    </g>
                </g>
                <circle id="Oval" stroke="#E0E1E1" cx="27" cy="27" r="27"></circle>
            </g>
        </g>
    </g>
</svg>